<?xml version="1.0" standalone="no"?>
<!DOCTYPE svg PUBLIC "-//W3C//DTD SVG 20010904//EN"
 "http://www.w3.org/TR/2001/REC-SVG-20010904/DTD/svg10.dtd">
<svg version="1.0" xmlns="http://www.w3.org/2000/svg"
 width="560.000000pt" height="560.000000pt" viewBox="0 0 560.000000 560.000000"
 preserveAspectRatio="xMidYMid meet">

<g transform="translate(0.000000,560.000000) scale(0.100000,-0.100000)"
fill="#000000" stroke="none">
<path d="M2317 2080 c-97 -31 -139 -70 -117 -109 17 -33 46 -34 107 -5 49 24
74 29 167 34 109 5 111 5 120 32 8 22 6 32 -9 48 -16 17 -30 20 -114 19 -64 0
-115 -6 -154 -19z"/>
<path d="M3050 2080 c-23 -23 -24 -33 -10 -61 9 -16 22 -19 98 -19 68 0 102
-6 157 -26 96 -35 115 -35 134 -1 16 28 15 29 -17 57 -52 44 -147 70 -252 70
-77 0 -93 -3 -110 -20z"/>
<path d="M2705 1834 c-120 -38 -171 -123 -131 -217 18 -45 87 -102 142 -117
48 -14 51 -25 16 -78 -36 -56 -166 -81 -246 -48 -39 16 -75 59 -83 99 -3 16
-16 35 -29 44 -22 14 -26 14 -49 -1 -68 -45 18 -195 138 -241 38 -14 47 -23
52 -49 21 -113 54 -173 120 -218 58 -39 113 -51 207 -46 135 7 215 63 259 179
11 27 19 65 19 83 0 31 4 36 38 46 37 13 96 51 120 80 26 30 61 116 56 136
-15 58 -84 49 -104 -13 -25 -78 -81 -113 -180 -113 -91 0 -152 37 -174 105 -5
18 0 23 36 32 84 23 150 87 164 159 5 25 0 46 -17 81 -20 40 -34 53 -82 77
-72 37 -192 45 -272 20z m65 -650 l0 -126 -27 6 c-62 15 -113 80 -127 159 -6
34 -5 37 16 37 13 0 46 11 73 24 28 14 53 25 58 25 4 1 7 -56 7 -125z m138
106 c20 -11 54 -23 76 -27 38 -6 38 -7 33 -43 -11 -83 -59 -143 -126 -156
l-31 -6 0 126 c0 69 2 126 5 126 3 0 22 -9 43 -20z"/>
<path d="M3574 1333 c-35 -36 -74 -108 -74 -138 0 -39 16 -55 52 -55 25 0 32
7 48 46 11 25 29 57 40 71 26 33 25 58 -2 77 -29 20 -43 20 -64 -1z"/>
</g>
</svg>
